<?xml version="1.0" standalone="no"?><svg xmlns="http://www.w3.org/2000/svg" viewBox="0 0 1440 320"><path fill="#0099ff" fill-opacity="1" d="M0,256L7.5,256C15,256,30,256,45,240C60,224,75,192,90,192C105,192,120,224,135,213.3C150,203,165,149,180,122.7C195,96,210,96,225,101.3C240,107,255,117,270,149.3C285,181,300,235,315,240C330,245,345,203,360,186.7C375,171,390,181,405,176C420,171,435,149,450,122.7C465,96,480,64,495,96C510,128,525,224,540,224C555,224,570,128,585,85.3C600,43,615,53,630,48C645,43,660,21,675,58.7C690,96,705,192,720,208C735,224,750,160,765,149.3C780,139,795,181,810,192C825,203,840,181,855,149.3C870,117,885,75,900,85.3C915,96,930,160,945,192C960,224,975,224,990,234.7C1005,245,1020,267,1035,266.7C1050,267,1065,245,1080,229.3C1095,213,1110,203,1125,197.3C1140,192,1155,192,1170,202.7C1185,213,1200,235,1215,218.7C1230,203,1245,149,1260,112C1275,75,1290,53,1305,90.7C1320,128,1335,224,1350,224C1365,224,1380,128,1395,96C1410,64,1425,96,1433,112L1440,128L1440,320L1432.5,320C1425,320,1410,320,1395,320C1380,320,1365,320,1350,320C1335,320,1320,320,1305,320C1290,320,1275,320,1260,320C1245,320,1230,320,1215,320C1200,320,1185,320,1170,320C1155,320,1140,320,1125,320C1110,320,1095,320,1080,320C1065,320,1050,320,1035,320C1020,320,1005,320,990,320C975,320,960,320,945,320C930,320,915,320,900,320C885,320,870,320,855,320C840,320,825,320,810,320C795,320,780,320,765,320C750,320,735,320,720,320C705,320,690,320,675,320C660,320,645,320,630,320C615,320,600,320,585,320C570,320,555,320,540,320C525,320,510,320,495,320C480,320,465,320,450,320C435,320,420,320,405,320C390,320,375,320,360,320C345,320,330,320,315,320C300,320,285,320,270,320C255,320,240,320,225,320C210,320,195,320,180,320C165,320,150,320,135,320C120,320,105,320,90,320C75,320,60,320,45,320C30,320,15,320,8,320L0,320Z"></path></svg>